<svg width="30" height="30" viewBox="0 0 30 30" fill="none" xmlns="http://www.w3.org/2000/svg">
<path d="M7.75078 26.25H2.30859V8.7246H7.75078V26.25ZM5.02676 6.33398C3.28652 6.33398 1.875 4.89257 1.875 3.15234C1.875 2.31644 2.20706 1.51478 2.79813 0.923708C3.3892 0.332639 4.19086 0.000579834 5.02676 0.000579834C5.86266 0.000579834 6.66432 0.332639 7.25539 0.923708C7.84646 1.51478 8.17852 2.31644 8.17852 3.15234C8.17852 4.89257 6.76641 6.33398 5.02676 6.33398ZM28.1191 26.25H22.6887V17.7187C22.6887 15.6855 22.6477 13.0781 19.8592 13.0781C17.0297 13.0781 16.5961 15.2871 16.5961 17.5723V26.25H11.1598V8.7246H16.3793V11.1152H16.4555C17.182 9.73827 18.9568 8.28515 21.6047 8.28515C27.1125 8.28515 28.125 11.9121 28.125 16.623V26.25H28.1191Z" fill="#F0F0F0"/>
</svg>
