<svg width="186" height="39" viewBox="0 0 186 39" fill="none" xmlns="http://www.w3.org/2000/svg">
<g id="Vector">
<path d="M33.7684 0H31.0985L0 38.0312H2.66996L33.7684 0Z" fill="white"/>
<path d="M8.24297 38.0312H5.57981L8.09944 34.9302L9.70107 36.2367L8.24297 38.0312Z" fill="white"/>
<path d="M36.5846 3.14928L39.1434 0H36.4802L34.9829 1.84278L36.5846 3.14928Z" fill="white"/>
<path d="M10.748 38.0312H13.4179L44.5164 0H41.8464L10.748 38.0312Z" fill="white"/>
<path d="M33.7685 38.0312H31.0985L23.0592 28.1997L24.3942 26.5672L33.7685 38.0312Z" fill="white"/>
<path d="M36.2735 38.0312H38.9367L27.0165 23.3603L25.6807 24.9939L36.2735 38.0312Z" fill="white"/>
<path d="M44.5164 38.0312H41.8465L28.4332 21.6277L29.7682 19.9952L44.5164 38.0312Z" fill="white"/>
<path d="M8.03627 0H5.37311L17.3963 14.7977L18.7321 13.1641L8.03627 0Z" fill="white"/>
<path d="M2.67 0L16.0832 16.4035L14.7483 18.0361L3.45306e-05 0H2.67Z" fill="white"/>
<path d="M13.418 0H10.748L20.1222 11.4641L21.4572 9.83147L13.418 0Z" fill="white"/>
<path d="M11.2755 36.5839L7.19222 33.243L7.92431 32.3482L13.1463 31.9552L10.211 29.5535L10.934 28.6698L15.0173 32.0107L14.2852 32.9054L9.05744 33.2938L11.9985 35.7002L11.2755 36.5839Z" fill="white"/>
<path d="M36.3561 5.93039C36.0958 6.24851 35.8209 6.41423 35.5312 6.42754C35.2377 6.43767 34.9531 6.32995 34.6774 6.10438L33.2679 4.9511L32.5992 5.76835L31.9294 5.2203L32.598 4.40305L31.6778 3.65008L32.3285 2.85476L33.2488 3.60773L34.2092 2.43396L34.879 2.982L33.9186 4.15578L35.2233 5.22328C35.4602 5.41708 35.6683 5.40428 35.8478 5.18488L36.6646 4.18662L37.3344 4.73467L36.3561 5.93039Z" fill="white"/>
<path d="M31.8913 11.3873L31.2473 10.8604L33.4459 8.17321C33.5716 8.01965 33.5467 7.87109 33.3712 7.72753C33.1995 7.58702 33.0508 7.59355 32.9251 7.7471L31.5028 9.48555C31.2365 9.81093 30.9599 9.99662 30.673 10.0426C30.3823 10.0856 30.0951 9.99096 29.8114 9.75881C29.524 9.52361 29.3725 9.25931 29.357 8.96589C29.3408 8.66577 29.4644 8.35484 29.7276 8.03311L31.7737 5.53239L32.4177 6.05929L30.403 8.52163C30.2744 8.67884 30.2884 8.82159 30.4452 8.94988C30.5236 9.01402 30.6032 9.04249 30.6839 9.03527C30.7646 9.02805 30.8333 8.98971 30.8902 8.92025L32.3978 7.07761C32.6312 6.79244 32.8857 6.63752 33.1614 6.61286C33.4364 6.58148 33.7176 6.6834 34.005 6.9186C34.2962 7.15685 34.4611 7.41995 34.4997 7.70791C34.5346 7.99281 34.4369 8.27601 34.2066 8.55753L31.8913 11.3873Z" fill="white"/>
<path d="M30.9245 12.5689L27.9751 10.1558L28.6342 9.35025L31.5836 11.7634L30.9245 12.5689ZM27.4838 9.76306L26.8367 9.23358L27.5049 8.41693L28.152 8.94642L27.4838 9.76306Z" fill="white"/>
<path d="M28.6793 15.313L24.7727 14.0889L25.4498 13.2614L28.4759 14.2104L28.6986 13.9382L27.1693 11.1599L27.8464 10.3324L29.8197 13.9192L28.6793 15.313Z" fill="white"/>
<path d="M25.1413 19.6371C24.8925 19.9412 24.624 20.1101 24.3359 20.1439C24.0477 20.1777 23.759 20.0763 23.4698 19.8396C23.1844 19.6061 23.0297 19.3448 23.0058 19.0556C22.9818 18.7665 23.0943 18.4699 23.3431 18.1658L25.1126 16.0031L24.9756 15.891C24.7435 15.701 24.5352 15.7187 24.3509 15.944L22.3971 18.332L21.7406 17.7948L23.8695 15.1928C24.1491 14.8511 24.4272 14.6743 24.7038 14.6625C24.9765 14.6474 25.2556 14.7567 25.5411 14.9902L27.579 16.6577L25.1413 19.6371ZM24.6046 18.9535L26.2544 16.9372L25.7691 16.5402L24.1194 18.5565C24.061 18.6278 24.0378 18.7028 24.0497 18.7815C24.0608 18.8533 24.1025 18.9188 24.1749 18.9779C24.2472 19.0371 24.3215 19.0666 24.3979 19.0664C24.4774 19.0625 24.5463 19.0248 24.6046 18.9535Z" fill="white"/>
<path d="M23.2598 21.9367C22.9995 22.2548 22.728 22.4233 22.4453 22.4423C22.1589 22.4583 21.8836 22.3582 21.6194 22.142L20.2686 21.0368L19.6 21.854L18.958 21.3288L19.6267 20.5116L18.7448 19.79L19.3955 18.9947L20.2774 19.7163L21.2378 18.5425L21.8797 19.0677L20.9194 20.2415L22.1697 21.2645C22.3967 21.4502 22.5999 21.4334 22.7794 21.214L23.5962 20.2157L24.2381 20.7409L23.2598 21.9367Z" fill="white"/>
<path d="M18.4918 27.7641L17.8969 25.4918L15.5519 25.3587L16.3187 24.4214L18.1291 24.5312L18.4584 24.1288L17.9968 22.3705L18.7591 21.4387L19.3585 23.7055L21.699 23.8442L20.9367 24.7759L19.1116 24.6725L18.7868 25.0694L19.2586 26.8268L18.4918 27.7641Z" fill="white"/>
<path d="M16.5585 30.127C16.1577 30.6168 15.722 30.8979 15.2514 30.9704C14.777 31.0399 14.299 30.8776 13.8174 30.4836C13.332 30.0865 13.0783 29.6501 13.0562 29.1744C13.0304 28.6956 13.2178 28.2113 13.6185 27.7216L14.74 26.351C15.0031 26.0293 15.2819 25.8486 15.5762 25.8088C15.8698 25.7622 16.1604 25.8565 16.4478 26.0917C17.034 26.5713 17.0564 27.1419 16.5151 27.8034L14.8195 29.8757C15.2295 30.083 15.5945 29.9912 15.9145 29.6001L17.7312 27.3797L18.3752 27.9066L16.5585 30.127ZM14.2625 28.2485C13.9545 28.6249 13.927 28.9899 14.18 29.3433L15.8397 27.3149C15.8995 27.2418 15.9235 27.1668 15.9116 27.0899C15.9027 27.0094 15.859 26.9371 15.7806 26.8729C15.6238 26.7446 15.4811 26.7591 15.3525 26.9162L14.2625 28.2485Z" fill="white"/>
<path d="M45 27.9822V10H48.9428L61.2578 22.927V10H65.1519V27.9822H61.2091L48.8941 15.03V27.9822H45Z" fill="white"/>
<path d="M180.075 27.9822C178.673 27.9822 177.642 27.6145 176.981 26.8792C176.32 26.1268 175.99 25.1435 175.99 23.9294V17.7219H172.389V14.7721H175.99V10.7193H179.495V14.7721H184.667V17.7219H179.495V23.4677C179.495 24.5108 179.978 25.0323 180.945 25.0323H185.344V27.9822H180.075Z" fill="white"/>
<path d="M156.029 27.9822V25.1461H167.87C168.546 25.1461 168.885 24.7598 168.885 23.987C168.885 23.2308 168.546 22.8526 167.87 22.8526H160.209C158.776 22.8526 157.688 22.5238 156.947 21.8662C156.206 21.1921 155.835 20.2303 155.835 18.9808C155.835 17.7149 156.206 16.7449 156.947 16.0708C157.704 15.3803 158.792 15.035 160.209 15.035H171.229V17.8711H160.379C159.686 17.8711 159.339 18.2163 159.339 18.9068C159.339 19.2521 159.436 19.5234 159.629 19.7206C159.823 19.9179 160.072 20.0166 160.379 20.0166H168.498C169.755 20.0166 170.713 20.3536 171.374 21.0277C172.05 21.6853 172.389 22.6471 172.389 23.9131C172.389 25.1954 172.05 26.1983 171.374 26.9217C170.697 27.6287 169.739 27.9822 168.498 27.9822H156.029Z" fill="white"/>
<path d="M150.822 27.9822V14.9936H154.372V27.9822H150.822ZM150.797 12.8499V10H154.396V12.8499H150.797Z" fill="white"/>
<path d="M138.73 27.9822L133.524 15.035H137.171L141.201 25.0659H142.401L146.431 15.035H150.078L144.872 27.9822H138.73Z" fill="white"/>
<path d="M119.676 27.9822C118.336 27.9822 117.31 27.6386 116.599 26.9514C115.887 26.2643 115.532 25.2838 115.532 24.01C115.532 22.753 115.887 21.7809 116.599 21.0938C117.31 20.4066 118.336 20.063 119.676 20.063H129.206V19.4597C129.206 18.4373 128.71 17.9261 127.717 17.9261H117.194V15.035H128.66C130.166 15.035 131.233 15.387 131.862 16.0909C132.49 16.7781 132.805 17.7501 132.805 19.0071V27.9822H119.676ZM120.321 25.0911H129.206V22.9541H120.321C120.007 22.9541 119.759 23.0547 119.577 23.2558C119.411 23.4402 119.329 23.6916 119.329 24.01C119.329 24.3285 119.411 24.5883 119.577 24.7894C119.759 24.9905 120.007 25.0911 120.321 25.0911Z" fill="white"/>
<path d="M109.543 27.9822C108.141 27.9822 107.11 27.6298 106.449 26.9251C105.789 26.2041 105.458 25.2618 105.458 24.0982V18.1494H101.857V15.3225H105.458V11.4386H108.963V15.3225H114.135V18.1494H108.963V23.6558C108.963 24.6554 109.446 25.1553 110.413 25.1553H114.812V27.9822H109.543Z" fill="white"/>
<path d="M83.8644 27.9822L88.5774 21.5086L83.8644 15.035H87.9944L91.6142 20.0476H93.3876L97.0317 15.035H101.137L96.4487 21.5086L101.137 27.9822H97.0317L93.3633 22.9444H91.6142L87.9944 27.9822H83.8644Z" fill="white"/>
<path d="M73.4522 27.9822C71.2941 27.9822 69.6111 27.4396 68.4032 26.3545C67.1953 25.253 66.5913 23.6418 66.5913 21.5209C66.5913 19.3836 67.1953 17.7724 68.4032 16.6873C69.6111 15.5858 71.2941 15.035 73.4522 15.035H79.4918C80.909 15.035 81.9881 15.3803 82.7289 16.0708C83.4859 16.7449 83.8644 17.7149 83.8644 18.9808C83.8644 21.562 82.4068 22.8526 79.4918 22.8526H70.36C70.6982 24.3816 71.7289 25.1461 73.4522 25.1461H83.2363V27.9822H73.4522ZM73.4522 17.8711C71.7934 17.8711 70.7707 18.5862 70.3841 20.0166H79.3226C79.6448 20.0166 79.8944 19.9179 80.0715 19.7206C80.2648 19.5234 80.3615 19.2521 80.3615 18.9068C80.3615 18.2163 80.0152 17.8711 79.3226 17.8711H73.4522Z" fill="white"/>
</g>
</svg>
