<svg width="606" height="120" viewBox="0 0 606 120" fill="none" xmlns="http://www.w3.org/2000/svg">
<path d="M18.9081 102.295L14.6481 108.94V112H12.6381V108.94L8.37808 102.295H10.6881L14.2731 108.1H13.0731L16.5981 102.295H18.9081ZM32.4442 112.195C31.1542 112.195 30.0492 111.995 29.1292 111.595C28.2192 111.185 27.5192 110.605 27.0292 109.855C26.5492 109.105 26.3092 108.205 26.3092 107.155C26.3092 106.095 26.5492 105.19 27.0292 104.44C27.5192 103.69 28.2192 103.115 29.1292 102.715C30.0492 102.305 31.1542 102.1 32.4442 102.1C33.7442 102.1 34.8492 102.305 35.7592 102.715C36.6692 103.115 37.3642 103.69 37.8442 104.44C38.3342 105.19 38.5792 106.095 38.5792 107.155C38.5792 108.205 38.3342 109.105 37.8442 109.855C37.3642 110.605 36.6692 111.185 35.7592 111.595C34.8492 111.995 33.7442 112.195 32.4442 112.195ZM32.4442 110.47C33.2442 110.47 33.9442 110.35 34.5442 110.11C35.1542 109.87 35.6292 109.505 35.9692 109.015C36.3192 108.525 36.4942 107.905 36.4942 107.155C36.4942 106.405 36.3192 105.785 35.9692 105.295C35.6292 104.805 35.1542 104.44 34.5442 104.2C33.9442 103.95 33.2442 103.825 32.4442 103.825C31.6542 103.825 30.9492 103.95 30.3292 104.2C29.7092 104.44 29.2242 104.805 28.8742 105.295C28.5242 105.785 28.3492 106.405 28.3492 107.155C28.3492 107.905 28.5242 108.525 28.8742 109.015C29.2242 109.505 29.7092 109.87 30.3292 110.11C30.9492 110.35 31.6542 110.47 32.4442 110.47ZM56.4866 107.71V102.295H58.4816V107.92C58.4816 108.56 58.3866 109.12 58.1966 109.6C58.0166 110.08 57.7566 110.485 57.4166 110.815C57.0766 111.145 56.6766 111.415 56.2166 111.625C55.7666 111.825 55.2716 111.97 54.7316 112.06C54.2016 112.15 53.6416 112.195 53.0516 112.195C52.4416 112.195 51.8616 112.15 51.3116 112.06C50.7616 111.97 50.2566 111.825 49.7966 111.625C49.3466 111.415 48.9566 111.145 48.6266 110.815C48.2966 110.485 48.0366 110.08 47.8466 109.6C47.6666 109.12 47.5766 108.56 47.5766 107.92V102.295H49.5716V107.71C49.5716 108.47 49.7216 109.05 50.0216 109.45C50.3216 109.84 50.7316 110.11 51.2516 110.26C51.7816 110.4 52.3816 110.47 53.0516 110.47C53.7016 110.47 54.2816 110.4 54.7916 110.26C55.3116 110.11 55.7216 109.84 56.0216 109.45C56.3316 109.05 56.4866 108.47 56.4866 107.71ZM67.8395 112V102.295H74.4245C75.1745 102.295 75.8245 102.4 76.3745 102.61C76.9345 102.81 77.3695 103.13 77.6795 103.57C77.9895 104 78.1445 104.555 78.1445 105.235C78.1445 105.695 78.0645 106.085 77.9045 106.405C77.7445 106.725 77.5195 106.985 77.2295 107.185C76.9495 107.385 76.6245 107.54 76.2545 107.65C75.8845 107.75 75.4895 107.815 75.0695 107.845L74.8595 107.725C75.5595 107.735 76.1345 107.795 76.5845 107.905C77.0345 108.005 77.3695 108.195 77.5895 108.475C77.8195 108.745 77.9345 109.15 77.9345 109.69V112H75.9395V109.825C75.9395 109.455 75.8745 109.17 75.7445 108.97C75.6145 108.76 75.3795 108.615 75.0395 108.535C74.7095 108.455 74.2295 108.415 73.5995 108.415H69.8345V112H67.8395ZM69.8345 106.855H74.4245C74.9845 106.855 75.4095 106.72 75.6995 106.45C75.9995 106.18 76.1495 105.815 76.1495 105.355C76.1495 104.915 75.9995 104.58 75.6995 104.35C75.4095 104.12 74.9845 104.005 74.4245 104.005H69.8345V106.855ZM96.4946 102.295H106.725V103.96H96.4946V102.295ZM100.62 103.75H102.615V112H100.62V103.75ZM120.253 112.195C118.963 112.195 117.858 111.995 116.938 111.595C116.028 111.185 115.328 110.605 114.838 109.855C114.358 109.105 114.118 108.205 114.118 107.155C114.118 106.095 114.358 105.19 114.838 104.44C115.328 103.69 116.028 103.115 116.938 102.715C117.858 102.305 118.963 102.1 120.253 102.1C121.553 102.1 122.658 102.305 123.568 102.715C124.478 103.115 125.173 103.69 125.653 104.44C126.143 105.19 126.388 106.095 126.388 107.155C126.388 108.205 126.143 109.105 125.653 109.855C125.173 110.605 124.478 111.185 123.568 111.595C122.658 111.995 121.553 112.195 120.253 112.195ZM120.253 110.47C121.053 110.47 121.753 110.35 122.353 110.11C122.963 109.87 123.438 109.505 123.778 109.015C124.128 108.525 124.303 107.905 124.303 107.155C124.303 106.405 124.128 105.785 123.778 105.295C123.438 104.805 122.963 104.44 122.353 104.2C121.753 103.95 121.053 103.825 120.253 103.825C119.463 103.825 118.758 103.95 118.138 104.2C117.518 104.44 117.033 104.805 116.683 105.295C116.333 105.785 116.158 106.405 116.158 107.155C116.158 107.905 116.333 108.525 116.683 109.015C117.033 109.505 117.518 109.87 118.138 110.11C118.758 110.35 119.463 110.47 120.253 110.47ZM142.93 111.01H141.985L147.565 102.295H149.56V112H147.565V104.95L148.045 105.085L143.59 112H141.355L136.9 105.115L137.38 104.98V112H135.385V102.295H137.38L142.93 111.01ZM164.69 112.195C163.4 112.195 162.295 111.995 161.375 111.595C160.465 111.185 159.765 110.605 159.275 109.855C158.795 109.105 158.555 108.205 158.555 107.155C158.555 106.095 158.795 105.19 159.275 104.44C159.765 103.69 160.465 103.115 161.375 102.715C162.295 102.305 163.4 102.1 164.69 102.1C165.99 102.1 167.095 102.305 168.005 102.715C168.915 103.115 169.61 103.69 170.09 104.44C170.58 105.19 170.825 106.095 170.825 107.155C170.825 108.205 170.58 109.105 170.09 109.855C169.61 110.605 168.915 111.185 168.005 111.595C167.095 111.995 165.99 112.195 164.69 112.195ZM164.69 110.47C165.49 110.47 166.19 110.35 166.79 110.11C167.4 109.87 167.875 109.505 168.215 109.015C168.565 108.525 168.74 107.905 168.74 107.155C168.74 106.405 168.565 105.785 168.215 105.295C167.875 104.805 167.4 104.44 166.79 104.2C166.19 103.95 165.49 103.825 164.69 103.825C163.9 103.825 163.195 103.95 162.575 104.2C161.955 104.44 161.47 104.805 161.12 105.295C160.77 105.785 160.595 106.405 160.595 107.155C160.595 107.905 160.77 108.525 161.12 109.015C161.47 109.505 161.955 109.87 162.575 110.11C163.195 110.35 163.9 110.47 164.69 110.47ZM179.822 112V102.295H186.407C187.157 102.295 187.807 102.4 188.357 102.61C188.917 102.81 189.352 103.13 189.662 103.57C189.972 104 190.127 104.555 190.127 105.235C190.127 105.695 190.047 106.085 189.887 106.405C189.727 106.725 189.502 106.985 189.212 107.185C188.932 107.385 188.607 107.54 188.237 107.65C187.867 107.75 187.472 107.815 187.052 107.845L186.842 107.725C187.542 107.735 188.117 107.795 188.567 107.905C189.017 108.005 189.352 108.195 189.572 108.475C189.802 108.745 189.917 109.15 189.917 109.69V112H187.922V109.825C187.922 109.455 187.857 109.17 187.727 108.97C187.597 108.76 187.362 108.615 187.022 108.535C186.692 108.455 186.212 108.415 185.582 108.415H181.817V112H179.822ZM181.817 106.855H186.407C186.967 106.855 187.392 106.72 187.682 106.45C187.982 106.18 188.132 105.815 188.132 105.355C188.132 104.915 187.982 104.58 187.682 104.35C187.392 104.12 186.967 104.005 186.407 104.005H181.817V106.855ZM199.265 112V102.295H205.85C206.6 102.295 207.25 102.4 207.8 102.61C208.36 102.81 208.795 103.13 209.105 103.57C209.415 104 209.57 104.555 209.57 105.235C209.57 105.695 209.49 106.085 209.33 106.405C209.17 106.725 208.945 106.985 208.655 107.185C208.375 107.385 208.05 107.54 207.68 107.65C207.31 107.75 206.915 107.815 206.495 107.845L206.285 107.725C206.985 107.735 207.56 107.795 208.01 107.905C208.46 108.005 208.795 108.195 209.015 108.475C209.245 108.745 209.36 109.15 209.36 109.69V112H207.365V109.825C207.365 109.455 207.3 109.17 207.17 108.97C207.04 108.76 206.805 108.615 206.465 108.535C206.135 108.455 205.655 108.415 205.025 108.415H201.26V112H199.265ZM201.26 106.855H205.85C206.41 106.855 206.835 106.72 207.125 106.45C207.425 106.18 207.575 105.815 207.575 105.355C207.575 104.915 207.425 104.58 207.125 104.35C206.835 104.12 206.41 104.005 205.85 104.005H201.26V106.855ZM224.482 112.195C223.192 112.195 222.087 111.995 221.167 111.595C220.257 111.185 219.557 110.605 219.067 109.855C218.587 109.105 218.347 108.205 218.347 107.155C218.347 106.095 218.587 105.19 219.067 104.44C219.557 103.69 220.257 103.115 221.167 102.715C222.087 102.305 223.192 102.1 224.482 102.1C225.782 102.1 226.887 102.305 227.797 102.715C228.707 103.115 229.402 103.69 229.882 104.44C230.372 105.19 230.617 106.095 230.617 107.155C230.617 108.205 230.372 109.105 229.882 109.855C229.402 110.605 228.707 111.185 227.797 111.595C226.887 111.995 225.782 112.195 224.482 112.195ZM224.482 110.47C225.282 110.47 225.982 110.35 226.582 110.11C227.192 109.87 227.667 109.505 228.007 109.015C228.357 108.525 228.532 107.905 228.532 107.155C228.532 106.405 228.357 105.785 228.007 105.295C227.667 104.805 227.192 104.44 226.582 104.2C225.982 103.95 225.282 103.825 224.482 103.825C223.692 103.825 222.987 103.95 222.367 104.2C221.747 104.44 221.262 104.805 220.912 105.295C220.562 105.785 220.387 106.405 220.387 107.155C220.387 107.905 220.562 108.525 220.912 109.015C221.262 109.505 221.747 109.87 222.367 110.11C222.987 110.35 223.692 110.47 224.482 110.47ZM242.269 112L238.174 102.295H240.379L243.844 110.89L243.199 110.905L246.499 102.295H248.794L252.094 110.905L251.449 110.89L254.914 102.295H257.074L253.024 112H250.579L247.339 103.585H247.969L244.714 112H242.269ZM264.107 114.235L263.837 113.725C263.987 113.505 264.132 113.26 264.272 112.99C264.422 112.72 264.502 112.445 264.512 112.165L263.687 112V110.275H265.982V111.505C265.982 112.215 265.812 112.785 265.472 113.215C265.142 113.655 264.687 113.995 264.107 114.235ZM283.992 102.295H294.222V103.96H283.992V102.295ZM288.117 103.75H290.112V112H288.117V103.75ZM307.75 112.195C306.46 112.195 305.355 111.995 304.435 111.595C303.525 111.185 302.825 110.605 302.335 109.855C301.855 109.105 301.615 108.205 301.615 107.155C301.615 106.095 301.855 105.19 302.335 104.44C302.825 103.69 303.525 103.115 304.435 102.715C305.355 102.305 306.46 102.1 307.75 102.1C309.05 102.1 310.155 102.305 311.065 102.715C311.975 103.115 312.67 103.69 313.15 104.44C313.64 105.19 313.885 106.095 313.885 107.155C313.885 108.205 313.64 109.105 313.15 109.855C312.67 110.605 311.975 111.185 311.065 111.595C310.155 111.995 309.05 112.195 307.75 112.195ZM307.75 110.47C308.55 110.47 309.25 110.35 309.85 110.11C310.46 109.87 310.935 109.505 311.275 109.015C311.625 108.525 311.8 107.905 311.8 107.155C311.8 106.405 311.625 105.785 311.275 105.295C310.935 104.805 310.46 104.44 309.85 104.2C309.25 103.95 308.55 103.825 307.75 103.825C306.96 103.825 306.255 103.95 305.635 104.2C305.015 104.44 304.53 104.805 304.18 105.295C303.83 105.785 303.655 106.405 303.655 107.155C303.655 107.905 303.83 108.525 304.18 109.015C304.53 109.505 305.015 109.87 305.635 110.11C306.255 110.35 306.96 110.47 307.75 110.47ZM328.432 102.295C329.522 102.295 330.432 102.425 331.162 102.685C331.892 102.945 332.472 103.3 332.902 103.75C333.342 104.19 333.652 104.7 333.832 105.28C334.022 105.86 334.117 106.47 334.117 107.11C334.117 107.75 334.012 108.365 333.802 108.955C333.602 109.545 333.277 110.07 332.827 110.53C332.387 110.98 331.802 111.34 331.072 111.61C330.352 111.87 329.472 112 328.432 112H322.882V102.295H328.432ZM324.877 110.29H328.387C329.107 110.29 329.702 110.205 330.172 110.035C330.652 109.855 331.032 109.615 331.312 109.315C331.592 109.015 331.792 108.675 331.912 108.295C332.032 107.915 332.092 107.52 332.092 107.11C332.092 106.7 332.032 106.31 331.912 105.94C331.792 105.57 331.592 105.24 331.312 104.95C331.032 104.66 330.652 104.43 330.172 104.26C329.702 104.09 329.107 104.005 328.387 104.005H324.877V110.29ZM344.147 109.885V108.22H350.567V109.885H344.147ZM341.732 112L346.292 102.295H348.452L353.057 112H350.882L346.892 103.255H347.852L343.892 112H341.732ZM369.772 102.295L365.512 108.94V112H363.502V108.94L359.242 102.295H361.552L365.137 108.1H363.937L367.462 102.295H369.772ZM378.247 106.165L377.977 105.655C378.127 105.435 378.272 105.19 378.412 104.92C378.562 104.64 378.642 104.36 378.652 104.08L377.827 103.915V102.205H380.122V103.435C380.122 104.135 379.952 104.705 379.612 105.145C379.282 105.575 378.827 105.915 378.247 106.165ZM388.274 108.73H390.299C390.339 109.07 390.494 109.38 390.764 109.66C391.044 109.93 391.409 110.145 391.859 110.305C392.309 110.455 392.814 110.53 393.374 110.53C393.884 110.53 394.304 110.475 394.634 110.365C394.964 110.255 395.209 110.1 395.369 109.9C395.529 109.7 395.609 109.46 395.609 109.18C395.609 108.91 395.509 108.705 395.309 108.565C395.109 108.415 394.794 108.295 394.364 108.205C393.934 108.105 393.369 108.005 392.669 107.905C392.119 107.825 391.599 107.715 391.109 107.575C390.619 107.425 390.184 107.235 389.804 107.005C389.434 106.775 389.139 106.495 388.919 106.165C388.709 105.825 388.604 105.425 388.604 104.965C388.604 104.395 388.764 103.895 389.084 103.465C389.414 103.035 389.899 102.7 390.539 102.46C391.179 102.22 391.964 102.1 392.894 102.1C394.294 102.1 395.369 102.4 396.119 103C396.879 103.59 397.249 104.405 397.229 105.445H395.279C395.239 104.855 394.989 104.43 394.529 104.17C394.079 103.91 393.509 103.78 392.819 103.78C392.179 103.78 391.649 103.875 391.229 104.065C390.819 104.255 390.614 104.58 390.614 105.04C390.614 105.22 390.664 105.38 390.764 105.52C390.864 105.65 391.034 105.765 391.274 105.865C391.514 105.965 391.839 106.06 392.249 106.15C392.659 106.24 393.169 106.33 393.779 106.42C394.349 106.5 394.864 106.61 395.324 106.75C395.794 106.88 396.194 107.055 396.524 107.275C396.864 107.485 397.124 107.755 397.304 108.085C397.484 108.415 397.574 108.82 397.574 109.3C397.574 109.89 397.419 110.405 397.109 110.845C396.809 111.275 396.339 111.61 395.699 111.85C395.069 112.09 394.249 112.21 393.239 112.21C392.519 112.21 391.884 112.135 391.334 111.985C390.784 111.825 390.309 111.615 389.909 111.355C389.509 111.095 389.184 110.81 388.934 110.5C388.684 110.19 388.504 109.88 388.394 109.57C388.294 109.26 388.254 108.98 388.274 108.73ZM415.597 102.295H425.827V103.96H415.597V102.295ZM419.722 103.75H421.717V112H419.722V103.75ZM436.322 107.95V110.335H443.807V112H434.327V102.295H443.792V103.96H436.322V106.375H442.442V107.95H436.322ZM464.142 108.505C464.052 109.285 463.777 109.95 463.317 110.5C462.857 111.05 462.232 111.47 461.442 111.76C460.652 112.05 459.712 112.195 458.622 112.195C457.712 112.195 456.877 112.09 456.117 111.88C455.367 111.67 454.717 111.355 454.167 110.935C453.627 110.515 453.207 109.995 452.907 109.375C452.607 108.745 452.457 108.01 452.457 107.17C452.457 106.33 452.607 105.595 452.907 104.965C453.207 104.335 453.627 103.81 454.167 103.39C454.717 102.96 455.367 102.64 456.117 102.43C456.877 102.21 457.712 102.1 458.622 102.1C459.712 102.1 460.652 102.25 461.442 102.55C462.242 102.85 462.872 103.28 463.332 103.84C463.792 104.39 464.062 105.06 464.142 105.85H462.162C462.032 105.43 461.812 105.07 461.502 104.77C461.202 104.46 460.812 104.225 460.332 104.065C459.852 103.905 459.282 103.825 458.622 103.825C457.802 103.825 457.082 103.955 456.462 104.215C455.842 104.465 455.362 104.84 455.022 105.34C454.682 105.83 454.512 106.44 454.512 107.17C454.512 107.89 454.682 108.495 455.022 108.985C455.362 109.475 455.842 109.85 456.462 110.11C457.082 110.36 457.802 110.485 458.622 110.485C459.282 110.485 459.847 110.405 460.317 110.245C460.797 110.085 461.187 109.855 461.487 109.555C461.797 109.255 462.022 108.905 462.162 108.505H464.142ZM474.894 106.3H482.589V107.965H474.894V106.3ZM482.259 102.295H484.254V112H482.259V102.295ZM473.139 102.295H475.134V112H473.139V102.295ZM503.447 110.02L502.817 110.275V102.295H504.812V112H502.817L494.972 104.335L495.602 104.08V112H493.607V102.295H495.602L503.447 110.02ZM519.952 112.195C518.662 112.195 517.557 111.995 516.637 111.595C515.727 111.185 515.027 110.605 514.537 109.855C514.057 109.105 513.817 108.205 513.817 107.155C513.817 106.095 514.057 105.19 514.537 104.44C515.027 103.69 515.727 103.115 516.637 102.715C517.557 102.305 518.662 102.1 519.952 102.1C521.252 102.1 522.357 102.305 523.267 102.715C524.177 103.115 524.872 103.69 525.352 104.44C525.842 105.19 526.087 106.095 526.087 107.155C526.087 108.205 525.842 109.105 525.352 109.855C524.872 110.605 524.177 111.185 523.267 111.595C522.357 111.995 521.252 112.195 519.952 112.195ZM519.952 110.47C520.752 110.47 521.452 110.35 522.052 110.11C522.662 109.87 523.137 109.505 523.477 109.015C523.827 108.525 524.002 107.905 524.002 107.155C524.002 106.405 523.827 105.785 523.477 105.295C523.137 104.805 522.662 104.44 522.052 104.2C521.452 103.95 520.752 103.825 519.952 103.825C519.162 103.825 518.457 103.95 517.837 104.2C517.217 104.44 516.732 104.805 516.382 105.295C516.032 105.785 515.857 106.405 515.857 107.155C515.857 107.905 516.032 108.525 516.382 109.015C516.732 109.505 517.217 109.87 517.837 110.11C518.457 110.35 519.162 110.47 519.952 110.47ZM537.08 102.295V110.335H543.53V112H535.085V102.295H537.08ZM557.754 112.195C556.464 112.195 555.359 111.995 554.439 111.595C553.529 111.185 552.829 110.605 552.339 109.855C551.859 109.105 551.619 108.205 551.619 107.155C551.619 106.095 551.859 105.19 552.339 104.44C552.829 103.69 553.529 103.115 554.439 102.715C555.359 102.305 556.464 102.1 557.754 102.1C559.054 102.1 560.159 102.305 561.069 102.715C561.979 103.115 562.674 103.69 563.154 104.44C563.644 105.19 563.889 106.095 563.889 107.155C563.889 108.205 563.644 109.105 563.154 109.855C562.674 110.605 561.979 111.185 561.069 111.595C560.159 111.995 559.054 112.195 557.754 112.195ZM557.754 110.47C558.554 110.47 559.254 110.35 559.854 110.11C560.464 109.87 560.939 109.505 561.279 109.015C561.629 108.525 561.804 107.905 561.804 107.155C561.804 106.405 561.629 105.785 561.279 105.295C560.939 104.805 560.464 104.44 559.854 104.2C559.254 103.95 558.554 103.825 557.754 103.825C556.964 103.825 556.259 103.95 555.639 104.2C555.019 104.44 554.534 104.805 554.184 105.295C553.834 105.785 553.659 106.405 553.659 107.155C553.659 107.905 553.834 108.525 554.184 109.015C554.534 109.505 555.019 109.87 555.639 110.11C556.259 110.35 556.964 110.47 557.754 110.47ZM578.466 112.195C577.566 112.195 576.751 112.09 576.021 111.88C575.301 111.67 574.676 111.355 574.146 110.935C573.626 110.515 573.226 109.995 572.946 109.375C572.666 108.755 572.526 108.04 572.526 107.23C572.526 106.41 572.671 105.685 572.961 105.055C573.261 104.415 573.681 103.875 574.221 103.435C574.771 102.995 575.421 102.665 576.171 102.445C576.931 102.215 577.771 102.1 578.691 102.1C579.781 102.1 580.721 102.255 581.511 102.565C582.301 102.865 582.921 103.29 583.371 103.84C583.831 104.39 584.091 105.045 584.151 105.805H582.231C582.101 105.405 581.886 105.06 581.586 104.77C581.296 104.47 580.911 104.24 580.431 104.08C579.951 103.91 579.371 103.825 578.691 103.825C577.821 103.825 577.076 103.965 576.456 104.245C575.846 104.525 575.381 104.92 575.061 105.43C574.741 105.94 574.581 106.54 574.581 107.23C574.581 107.9 574.721 108.48 575.001 108.97C575.281 109.45 575.711 109.82 576.291 110.08C576.881 110.34 577.631 110.47 578.541 110.47C579.241 110.47 579.856 110.38 580.386 110.2C580.926 110.01 581.376 109.76 581.736 109.45C582.096 109.13 582.351 108.775 582.501 108.385L583.281 108.1C583.151 109.39 582.661 110.395 581.811 111.115C580.971 111.835 579.856 112.195 578.466 112.195ZM582.771 112C582.771 111.69 582.791 111.335 582.831 110.935C582.871 110.525 582.921 110.115 582.981 109.705C583.041 109.285 583.096 108.9 583.146 108.55H578.706V107.275H584.496V112H582.771ZM602.618 102.295L598.358 108.94V112H596.348V108.94L592.088 102.295H594.398L597.983 108.1H596.783L600.308 102.295H602.618Z" fill="white"/>
<path d="M7.41211 93V21.5H23.6121L74.2121 72.9V21.5H90.2121V93H74.0121L23.4121 41.5V93H7.41211ZM129.089 93.5C120.156 93.5 113.189 91.3 108.189 86.9C103.189 82.4333 100.689 75.9 100.689 67.3C100.689 58.6333 103.189 52.1 108.189 47.7C113.189 43.2333 120.156 41 129.089 41H154.089C159.956 41 164.423 42.4 167.489 45.2C170.623 47.9333 172.189 51.8667 172.189 57C172.189 67.4667 166.156 72.7 154.089 72.7H116.289C117.689 78.9 121.956 82 129.089 82H169.589V93.5H129.089ZM129.089 52.5C122.223 52.5 117.989 55.4 116.389 61.2H153.389C154.723 61.2 155.756 60.8 156.489 60C157.289 59.2 157.689 58.1 157.689 56.7C157.689 53.9 156.256 52.5 153.389 52.5H129.089ZM173.678 93L193.078 67.3L173.678 41.6H190.678L205.578 61.5H212.878L227.878 41.6H244.778L225.478 67.3L244.778 93H227.878L212.778 73H205.578L190.678 93H173.678ZM278.122 93C272.322 93 268.056 91.5667 265.322 88.7C262.589 85.7667 261.222 81.9333 261.222 77.2V53H246.322V41.5H261.222V25.7H275.722V41.5H297.122V53H275.722V75.4C275.722 79.4667 277.722 81.5 281.722 81.5H299.922V93H278.122ZM321.077 93C315.677 93 311.544 91.6333 308.677 88.9C305.81 86.1667 304.377 82.2667 304.377 77.2C304.377 72.2 305.81 68.3333 308.677 65.6C311.544 62.8667 315.677 61.5 321.077 61.5H359.477V59.1C359.477 55.0333 357.477 53 353.477 53H311.077V41.5H357.277C363.344 41.5 367.644 42.9 370.177 45.7C372.71 48.4333 373.977 52.3 373.977 57.3V93H321.077ZM323.677 81.5H359.477V73H323.677C322.41 73 321.41 73.4 320.677 74.2C320.01 74.9333 319.677 75.9333 319.677 77.2C319.677 78.4667 320.01 79.5 320.677 80.3C321.41 81.1 322.41 81.5 323.677 81.5ZM401.237 93L379.537 41.5H394.737L411.537 81.4H416.537L433.337 41.5H448.537L426.837 93H401.237ZM455.033 93V41.5H469.533V93H455.033ZM454.933 33V21.7H469.633V33H454.933ZM478.821 93.5V82H527.821C530.621 82 532.021 80.4333 532.021 77.3C532.021 74.2333 530.621 72.7 527.821 72.7H496.121C490.188 72.7 485.688 71.3667 482.621 68.7C479.555 65.9667 478.021 62.0667 478.021 57C478.021 51.8667 479.555 47.9333 482.621 45.2C485.755 42.4 490.255 41 496.121 41H541.721V52.5H496.821C493.955 52.5 492.521 53.9 492.521 56.7C492.521 58.1 492.921 59.2 493.721 60C494.521 60.8 495.555 61.2 496.821 61.2H530.421C535.621 61.2 539.588 62.5667 542.321 65.3C545.121 67.9667 546.521 71.8667 546.521 77C546.521 82.2 545.121 86.2667 542.321 89.2C539.521 92.0667 535.555 93.5 530.421 93.5H478.821ZM581.833 93C576.033 93 571.767 91.5667 569.033 88.7C566.3 85.7667 564.933 81.9333 564.933 77.2V53H550.033V41.5H564.933V25.7H579.433V41.5H600.833V53H579.433V75.4C579.433 79.4667 581.433 81.5 585.433 81.5H603.633V93H581.833Z" fill="white"/>
</svg>
