<svg width="1521" height="425" viewBox="0 0 1521 425" fill="none" xmlns="http://www.w3.org/2000/svg">
<path d="M837.583 195.531L876.452 118.13H887.12L848.251 195.531H837.583Z" fill="white"/>
<path d="M1406.31 195.531L1445.18 118.13H1455.85L1416.98 195.531H1406.31Z" fill="white"/>
<path d="M1202.18 294.764L1241.05 217.362H1251.72L1212.85 294.764H1202.18Z" fill="white"/>
<path d="M488.01 378.036V367.286H533.496C535.591 367.286 537.162 366.707 538.21 365.55C539.257 364.337 539.781 362.683 539.781 360.588C539.781 358.438 539.257 356.757 538.21 355.544C537.162 354.331 535.591 353.724 533.496 353.724H495.784V343.057H533.413C537.658 343.057 539.781 340.824 539.781 336.359C539.781 331.948 537.658 329.743 533.413 329.743H488.01V318.993H535.894C541.628 318.993 546.066 320.426 549.209 323.293C552.407 326.105 554.005 330.046 554.005 335.118C554.005 337.875 553.482 340.493 552.434 342.974C551.387 345.4 549.65 347.192 547.224 348.349C549.65 349.562 551.387 351.354 552.434 353.724C553.482 356.04 554.005 358.603 554.005 361.415C554.005 366.432 552.407 370.456 549.209 373.488C546.066 376.52 541.628 378.036 535.894 378.036H488.01Z" fill="white"/>
<path d="M562.309 378.036V318.91H572.067L598.532 318.828C609.227 318.828 617.525 321.336 623.424 326.353C629.324 331.37 632.273 338.729 632.273 348.432C632.273 358.135 629.324 365.494 623.424 370.511C617.525 375.528 609.227 378.036 598.532 378.036H562.309ZM597.622 329.578H575.541V367.286H597.622C604.569 367.286 609.834 365.77 613.418 362.738C617.001 359.706 618.793 354.937 618.793 348.432C618.793 341.872 617.001 337.103 613.418 334.126C609.834 331.094 604.569 329.578 597.622 329.578Z" fill="white"/>
<path d="M669.48 378.036V318.91H680.562L707.936 338.095H708.35L735.724 318.91H746.806V378.036H733.573V335.449L714.8 348.019V378.036H701.568V348.019L682.712 335.449V378.036H669.48Z" fill="white"/>
<path d="M778.992 378.45C771.604 378.45 765.843 376.631 761.708 372.992C757.573 369.298 755.505 363.896 755.505 356.784C755.505 349.617 757.573 344.215 761.708 340.576C765.843 336.882 771.604 335.036 778.992 335.036H794.292C801.68 335.036 807.441 336.882 811.576 340.576C815.711 344.215 817.779 349.617 817.779 356.784C817.779 363.896 815.711 369.298 811.576 372.992C807.441 376.631 801.68 378.45 794.292 378.45H778.992ZM778.992 368.94H794.292C797.876 368.94 800.605 367.948 802.479 365.963C804.409 363.978 805.374 360.919 805.374 356.784C805.374 352.594 804.409 349.507 802.479 347.522C800.605 345.538 797.876 344.545 794.292 344.545H778.992C775.409 344.545 772.652 345.538 770.722 347.522C768.848 349.507 767.91 352.594 767.91 356.784C767.91 360.919 768.848 363.978 770.722 365.963C772.652 367.948 775.409 368.94 778.992 368.94Z" fill="white"/>
<path d="M877.674 378.036H865.683V318.91H877.674V378.036ZM875.607 378.036H847.075C839.687 378.036 833.926 376.217 829.791 372.579C825.656 368.94 823.588 363.675 823.588 356.784C823.588 349.838 825.656 344.545 829.791 340.907C833.926 337.268 839.687 335.449 847.075 335.449H874.78V344.959H847.075C843.491 344.959 840.735 345.951 838.805 347.936C836.931 349.865 835.993 352.815 835.993 356.784C835.993 360.698 836.931 363.648 838.805 365.632C840.735 367.562 843.491 368.527 847.075 368.527H875.607V378.036Z" fill="white"/>
<path d="M908.616 378.45C901.228 378.45 895.467 376.631 891.332 372.992C887.197 369.298 885.129 363.896 885.129 356.784C885.129 349.617 887.197 344.215 891.332 340.576C895.467 336.882 901.228 335.036 908.616 335.036H929.291C934.143 335.036 937.837 336.193 940.373 338.509C942.965 340.769 944.26 344.022 944.26 348.267C944.26 356.922 939.271 361.25 929.291 361.25H898.031C899.188 366.377 902.717 368.94 908.616 368.94H942.11V378.45H908.616ZM908.616 344.545C902.937 344.545 899.436 346.944 898.113 351.74H928.713C929.815 351.74 930.67 351.409 931.276 350.747C931.938 350.086 932.269 349.176 932.269 348.019C932.269 345.703 931.083 344.545 928.713 344.545H908.616Z" fill="white"/>
<path d="M951.716 378.036V318.91H963.708V378.036H951.716Z" fill="white"/>
<path d="M971.389 378.45V368.94H1011.91C1014.23 368.94 1015.39 367.645 1015.39 365.053C1015.39 362.518 1014.23 361.25 1011.91 361.25H985.697C980.79 361.25 977.068 360.147 974.532 357.942C971.996 355.682 970.728 352.456 970.728 348.267C970.728 344.022 971.996 340.769 974.532 338.509C977.123 336.193 980.845 335.036 985.697 335.036H1023.41V344.545H986.275C983.905 344.545 982.719 345.703 982.719 348.019C982.719 349.176 983.05 350.086 983.712 350.747C984.373 351.409 985.228 351.74 986.275 351.74H1014.06C1018.36 351.74 1021.64 352.87 1023.9 355.13C1026.22 357.335 1027.38 360.56 1027.38 364.805C1027.38 369.105 1026.22 372.468 1023.9 374.894C1021.59 377.265 1018.31 378.45 1014.06 378.45H971.389Z" fill="white"/>
<path d="M273.976 278.804L267.36 219.678H280.592L285.472 262.844L301.929 250.192V219.678H315.161V250.275L331.453 262.844L336.416 219.678H349.648L343.032 278.804H331.95L308.545 259.867L285.058 278.804H273.976Z" fill="white"/>
<path d="M378.93 279.217C371.542 279.217 365.781 277.398 361.646 273.76C357.511 270.066 355.443 264.663 355.443 257.552C355.443 250.385 357.511 244.982 361.646 241.344C365.781 237.65 371.542 235.803 378.93 235.803H399.605C404.457 235.803 408.151 236.961 410.687 239.276C413.279 241.537 414.574 244.789 414.574 249.034C414.574 257.689 409.585 262.017 399.605 262.017H368.345C369.502 267.144 373.031 269.708 378.93 269.708H412.424V279.217H378.93ZM378.93 245.313C373.251 245.313 369.75 247.711 368.427 252.507H399.026C400.129 252.507 400.984 252.177 401.59 251.515C402.252 250.853 402.583 249.944 402.583 248.786C402.583 246.471 401.397 245.313 399.026 245.313H378.93Z" fill="white"/>
<path d="M422.03 278.804V219.678H434.022V278.804H422.03ZM424.098 278.804V269.294H452.63C456.213 269.294 458.942 268.329 460.817 266.4C462.747 264.415 463.711 261.466 463.711 257.552C463.711 253.582 462.747 250.633 460.817 248.703C458.942 246.719 456.213 245.726 452.63 245.726H424.925V236.217H452.63C460.017 236.217 465.779 238.036 469.914 241.674C474.049 245.313 476.117 250.605 476.117 257.552C476.117 264.443 474.049 269.708 469.914 273.346C465.779 276.985 460.017 278.804 452.63 278.804H424.098Z" fill="white"/>
<path d="M513.725 278.804V219.678H523.483L549.948 219.595C560.644 219.595 568.941 222.104 574.841 227.12C580.74 232.137 583.69 239.497 583.69 249.2C583.69 258.902 580.74 266.262 574.841 271.279C568.941 276.296 560.644 278.804 549.948 278.804H513.725ZM549.038 230.345H526.957V268.054H549.038C555.985 268.054 561.25 266.538 564.834 263.506C568.418 260.474 570.209 255.705 570.209 249.2C570.209 242.639 568.418 237.871 564.834 234.894C561.25 231.861 555.985 230.345 549.038 230.345Z" fill="white"/>
<path d="M612.576 279.217C605.188 279.217 599.427 277.398 595.292 273.76C591.157 270.066 589.089 264.663 589.089 257.552C589.089 250.385 591.157 244.982 595.292 241.344C599.427 237.65 605.188 235.803 612.576 235.803H633.251C638.103 235.803 641.797 236.961 644.333 239.276C646.925 241.537 648.22 244.789 648.22 249.034C648.22 257.689 643.231 262.017 633.251 262.017H601.99C603.148 267.144 606.677 269.708 612.576 269.708H646.07V279.217H612.576ZM612.576 245.313C606.897 245.313 603.396 247.711 602.073 252.507H632.672C633.775 252.507 634.63 252.177 635.236 251.515C635.898 250.853 636.229 249.944 636.229 248.786C636.229 246.471 635.043 245.313 632.672 245.313H612.576Z" fill="white"/>
<path d="M669.093 278.804L651.147 236.217H663.717L677.611 269.211H681.746L695.64 236.217H708.211L690.264 278.804H669.093Z" fill="white"/>
<path d="M734.608 279.217C727.22 279.217 721.459 277.398 717.324 273.76C713.189 270.066 711.121 264.663 711.121 257.552C711.121 250.385 713.189 244.982 717.324 241.344C721.459 237.65 727.22 235.803 734.608 235.803H755.283C760.135 235.803 763.829 236.961 766.365 239.276C768.957 241.537 770.252 244.789 770.252 249.034C770.252 257.689 765.263 262.017 755.283 262.017H724.022C725.18 267.144 728.709 269.708 734.608 269.708H768.102V279.217H734.608ZM734.608 245.313C728.929 245.313 725.428 247.711 724.105 252.507H754.704C755.807 252.507 756.662 252.177 757.268 251.515C757.93 250.853 758.261 249.944 758.261 248.786C758.261 246.471 757.075 245.313 754.704 245.313H734.608Z" fill="white"/>
<path d="M777.708 278.804V219.678H789.7V278.804H777.708Z" fill="white"/>
<path d="M820.62 279.217C813.232 279.217 807.471 277.398 803.336 273.76C799.201 270.066 797.133 264.663 797.133 257.552C797.133 250.385 799.201 244.982 803.336 241.344C807.471 237.65 813.232 235.803 820.62 235.803H835.92C843.308 235.803 849.069 237.65 853.204 241.344C857.339 244.982 859.407 250.385 859.407 257.552C859.407 264.663 857.339 270.066 853.204 273.76C849.069 277.398 843.308 279.217 835.92 279.217H820.62ZM820.62 269.708H835.92C839.504 269.708 842.233 268.715 844.107 266.731C846.037 264.746 847.002 261.686 847.002 257.552C847.002 253.362 846.037 250.275 844.107 248.29C842.233 246.305 839.504 245.313 835.92 245.313H820.62C817.037 245.313 814.28 246.305 812.35 248.29C810.476 250.275 809.538 253.362 809.538 257.552C809.538 261.686 810.476 264.746 812.35 266.731C814.28 268.715 817.037 269.708 820.62 269.708Z" fill="white"/>
<path d="M866.87 297.41V236.217H897.469C904.857 236.217 910.619 238.036 914.754 241.674C918.889 245.313 920.956 250.578 920.956 257.469C920.956 264.415 918.889 269.708 914.754 273.346C910.619 276.985 904.857 278.804 897.469 278.804H878.862V297.41H866.87ZM897.469 245.726H878.862V269.294H897.469C901.053 269.294 903.782 268.329 905.657 266.4C907.586 264.415 908.551 261.438 908.551 257.469C908.551 253.555 907.586 250.633 905.657 248.703C903.782 246.719 901.053 245.726 897.469 245.726Z" fill="white"/>
<path d="M928.411 278.804V236.217H983.573C988.424 236.217 991.98 237.43 994.241 239.855C996.501 242.226 997.632 245.368 997.632 249.282V278.804H985.64V250.771C985.64 247.408 983.931 245.726 980.513 245.726H969.017V278.804H957.026V245.726H940.403V278.804H928.411Z" fill="white"/>
<path d="M1028.18 279.217C1020.79 279.217 1015.03 277.398 1010.9 273.76C1006.76 270.066 1004.69 264.663 1004.69 257.552C1004.69 250.385 1006.76 244.982 1010.9 241.344C1015.03 237.65 1020.79 235.803 1028.18 235.803H1048.86C1053.71 235.803 1057.4 236.961 1059.94 239.276C1062.53 241.537 1063.82 244.789 1063.82 249.034C1063.82 257.689 1058.83 262.017 1048.86 262.017H1017.59C1018.75 267.144 1022.28 269.708 1028.18 269.708H1061.67V279.217H1028.18ZM1028.18 245.313C1022.5 245.313 1019 247.711 1017.68 252.507H1048.28C1049.38 252.507 1050.23 252.177 1050.84 251.515C1051.5 250.853 1051.83 249.944 1051.83 248.786C1051.83 246.471 1050.65 245.313 1048.28 245.313H1028.18Z" fill="white"/>
<path d="M1071.28 278.804V236.217H1108.41C1113.26 236.217 1116.79 237.43 1119 239.855C1121.26 242.226 1122.39 245.368 1122.39 249.282V278.804H1110.4V250.688C1110.4 247.38 1108.74 245.726 1105.44 245.726H1083.27V278.804H1071.28Z" fill="white"/>
<path d="M1153.21 278.804C1148.41 278.804 1144.88 277.619 1142.62 275.248C1140.36 272.822 1139.23 269.653 1139.23 265.738V245.726H1126.91V236.217H1139.23V223.151H1151.22V236.217H1168.92V245.726H1151.22V264.25C1151.22 267.613 1152.88 269.294 1156.19 269.294H1171.24V278.804H1153.21Z" fill="white"/>
<path d="M922.387 179.571V120.611L972.173 120.445C978.734 120.445 983.586 121.824 986.728 124.58C989.926 127.281 991.525 131.361 991.525 136.819C991.525 142.276 989.706 146.273 986.067 148.809C988.493 150.132 990.285 151.897 991.442 154.102C992.6 156.252 993.179 159.036 993.179 162.454C993.179 168.022 991.58 172.267 988.382 175.189C985.24 178.055 980.388 179.489 973.827 179.489L922.387 179.571ZM970.602 131.03H935.619V144.261H970.602C975.619 144.261 978.128 142.001 978.128 137.48C978.128 133.18 975.619 131.03 970.602 131.03ZM972.256 154.846H935.619V168.904H972.256C977.273 168.904 979.782 166.533 979.782 161.792C979.782 157.161 977.273 154.846 972.256 154.846Z" fill="white"/>
<path d="M1001.02 179.571V136.984H1033.6C1038.4 136.984 1041.93 138.197 1044.19 140.623C1046.45 142.993 1047.58 146.136 1047.58 150.05V158.898H1035.42V151.538C1035.42 148.23 1033.77 146.577 1030.46 146.577H1013.18V179.571H1001.02Z" fill="white"/>
<path d="M1065.49 179.571C1061.03 179.571 1057.61 178.441 1055.24 176.181C1052.87 173.921 1051.68 170.696 1051.68 166.506C1051.68 162.371 1052.87 159.174 1055.24 156.913C1057.61 154.653 1061.03 153.523 1065.49 153.523H1097.25V151.538C1097.25 148.175 1095.6 146.494 1092.29 146.494H1057.22V136.984H1095.43C1100.45 136.984 1104 138.142 1106.1 140.457C1108.19 142.718 1109.24 145.915 1109.24 150.05V179.571H1065.49ZM1067.64 170.062H1097.25V163.033H1067.64C1066.6 163.033 1065.77 163.363 1065.16 164.025C1064.61 164.631 1064.33 165.458 1064.33 166.506C1064.33 167.553 1064.61 168.408 1065.16 169.069C1065.77 169.731 1066.6 170.062 1067.64 170.062Z" fill="white"/>
<path d="M1118.37 179.571V136.984H1155.5C1160.35 136.984 1163.88 138.197 1166.09 140.623C1168.35 142.993 1169.48 146.136 1169.48 150.05V179.571H1157.49V151.455C1157.49 148.148 1155.83 146.494 1152.52 146.494H1130.36V179.571H1118.37Z" fill="white"/>
<path d="M1230.57 179.571H1218.57V120.445H1230.57V179.571ZM1228.5 179.571H1199.97C1192.58 179.571 1186.82 177.752 1182.68 174.114C1178.55 170.475 1176.48 165.21 1176.48 158.319C1176.48 151.373 1178.55 146.08 1182.68 142.442C1186.82 138.803 1192.58 136.984 1199.97 136.984H1227.67V146.494H1199.97C1196.38 146.494 1193.63 147.486 1191.7 149.471C1189.82 151.4 1188.88 154.35 1188.88 158.319C1188.88 162.233 1189.82 165.183 1191.7 167.167C1193.63 169.097 1196.38 170.062 1199.97 170.062H1228.5V179.571Z" fill="white"/>
<path d="M1239.67 179.571V136.984H1251.67V179.571H1239.67ZM1239.59 129.955V120.611H1251.75V129.955H1239.59Z" fill="white"/>
<path d="M1260.75 179.571V136.984H1297.89C1302.74 136.984 1306.27 138.197 1308.47 140.623C1310.73 142.993 1311.86 146.136 1311.86 150.05V179.571H1299.87V151.455C1299.87 148.148 1298.22 146.494 1294.91 146.494H1272.74V179.571H1260.75Z" fill="white"/>
<path d="M1330.61 198.177V188.668H1355.58C1358.89 188.668 1360.54 186.986 1360.54 183.623V179.571H1342.35C1334.96 179.571 1329.2 177.752 1325.07 174.114C1320.93 170.475 1318.86 165.21 1318.86 158.319C1318.86 151.373 1320.93 146.08 1325.07 142.442C1329.2 138.803 1334.96 136.984 1342.35 136.984H1372.54V185.112C1372.54 189.026 1371.41 192.168 1369.15 194.539C1366.88 196.965 1363.36 198.177 1358.56 198.177H1330.61ZM1342.35 170.062H1360.54V146.494H1342.35C1338.77 146.494 1336.01 147.486 1334.08 149.471C1332.21 151.4 1331.27 154.35 1331.27 158.319C1331.27 162.233 1332.21 165.183 1334.08 167.167C1336.01 169.097 1338.77 170.062 1342.35 170.062Z" fill="white"/>
<path d="M88.9005 179.985C82.8909 179.985 78.1494 179.213 74.676 177.669C71.2026 176.071 68.7215 173.673 67.2329 170.475C65.7443 167.278 65 163.253 65 158.402V120.445H78.2321V158.402C78.2321 162.592 79.197 165.458 81.1267 167.002C83.1115 168.49 86.4471 169.235 91.1335 169.235H107.095C111.781 169.235 115.089 168.49 117.019 167.002C119.004 165.458 119.996 162.592 119.996 158.402V120.445H133.228V158.402C133.228 163.253 132.484 167.278 130.995 170.475C129.507 173.673 127.026 176.071 123.552 177.669C120.079 179.213 115.337 179.985 109.328 179.985H88.9005Z" fill="white"/>
<path d="M139.831 179.571L161.995 150.05L139.831 120.445H155.958L173.739 144.675H181.347L199.128 120.445H215.254L193.091 150.05L215.254 179.571H199.045L181.347 155.425H173.739L156.041 179.571H139.831Z" fill="white"/>
<path d="M216.465 195.531L255.335 118.13H266.003L227.134 195.531H216.465Z" fill="white"/>
<path d="M296.137 179.985C290.128 179.985 285.386 179.213 281.913 177.669C278.439 176.071 275.958 173.673 274.469 170.475C272.981 167.278 272.237 163.253 272.237 158.402V120.445H285.469V158.402C285.469 162.592 286.434 165.458 288.363 167.002C290.348 168.49 293.684 169.235 298.37 169.235H314.331C319.018 169.235 322.326 168.49 324.255 167.002C326.24 165.458 327.233 162.592 327.233 158.402V120.445H340.465V158.402C340.465 163.253 339.72 167.278 338.232 170.475C336.743 173.673 334.262 176.071 330.789 177.669C327.315 179.213 322.574 179.985 316.564 179.985H296.137Z" fill="white"/>
<path d="M352.03 179.571V120.445H365.262V179.571H352.03Z" fill="white"/>
<path d="M405.737 179.571V120.445H415.496L441.96 120.363C452.656 120.363 460.954 122.871 466.853 127.888C472.752 132.905 475.702 140.264 475.702 149.967C475.702 159.67 472.752 167.029 466.853 172.046C460.954 177.063 452.656 179.571 441.96 179.571H405.737ZM441.05 131.113H418.969V168.821H441.05C447.997 168.821 453.262 167.305 456.846 164.273C460.43 161.241 462.222 156.472 462.222 149.967C462.222 143.407 460.43 138.638 456.846 135.661C453.262 132.629 447.997 131.113 441.05 131.113Z" fill="white"/>
<path d="M504.588 179.985C497.2 179.985 491.439 178.166 487.304 174.527C483.169 170.833 481.101 165.431 481.101 158.319C481.101 151.152 483.169 145.75 487.304 142.111C491.439 138.417 497.2 136.571 504.588 136.571H525.264C530.115 136.571 533.809 137.728 536.345 140.044C538.937 142.304 540.232 145.557 540.232 149.802C540.232 158.457 535.243 162.785 525.264 162.785H494.003C495.16 167.912 498.689 170.475 504.588 170.475H538.082V179.985H504.588ZM504.588 146.08C498.91 146.08 495.409 148.478 494.085 153.275H524.685C525.787 153.275 526.642 152.944 527.248 152.282C527.91 151.621 528.241 150.711 528.241 149.554C528.241 147.238 527.055 146.08 524.685 146.08H504.588Z" fill="white"/>
<path d="M546.282 179.985V170.475H586.806C589.121 170.475 590.279 169.18 590.279 166.588C590.279 164.052 589.121 162.785 586.806 162.785H560.59C555.683 162.785 551.961 161.682 549.425 159.477C546.889 157.216 545.621 153.991 545.621 149.802C545.621 145.557 546.889 142.304 549.425 140.044C552.016 137.728 555.738 136.571 560.59 136.571H598.301V146.08H561.169C558.798 146.08 557.612 147.238 557.612 149.554C557.612 150.711 557.943 151.621 558.605 152.282C559.267 152.944 560.121 153.275 561.169 153.275H588.956C593.256 153.275 596.537 154.405 598.797 156.665C601.113 158.87 602.271 162.095 602.271 166.34C602.271 170.64 601.113 174.003 598.797 176.429C596.482 178.8 593.201 179.985 588.956 179.985H546.282Z" fill="white"/>
<path d="M609.31 179.571V136.984H621.302V179.571H609.31ZM609.227 129.955V120.611H621.384V129.955H609.227Z" fill="white"/>
<path d="M640.479 198.177V188.668H665.454C668.762 188.668 670.416 186.986 670.416 183.623V179.571H652.222C644.834 179.571 639.073 177.752 634.938 174.114C630.803 170.475 628.735 165.21 628.735 158.319C628.735 151.373 630.803 146.08 634.938 142.442C639.073 138.803 644.834 136.984 652.222 136.984H682.408V185.112C682.408 189.026 681.278 192.168 679.017 194.539C676.757 196.965 673.228 198.177 668.432 198.177H640.479ZM652.222 170.062H670.416V146.494H652.222C648.638 146.494 645.882 147.486 643.952 149.471C642.078 151.4 641.14 154.35 641.14 158.319C641.14 162.233 642.078 165.183 643.952 167.167C645.882 169.097 648.638 170.062 652.222 170.062Z" fill="white"/>
<path d="M691.526 179.571V136.984H728.659C733.511 136.984 737.039 138.197 739.245 140.623C741.505 142.993 742.635 146.136 742.635 150.05V179.571H730.644V151.455C730.644 148.148 728.99 146.494 725.682 146.494H703.518V179.571H691.526Z" fill="white"/>
<path d="M749.885 179.985V170.475H790.408C792.724 170.475 793.882 169.18 793.882 166.588C793.882 164.052 792.724 162.785 790.408 162.785H764.192C759.285 162.785 755.563 161.682 753.027 159.477C750.491 157.216 749.223 153.991 749.223 149.802C749.223 145.557 750.491 142.304 753.027 140.044C755.619 137.728 759.34 136.571 764.192 136.571H801.904V146.08H764.771C762.4 146.08 761.215 147.238 761.215 149.554C761.215 150.711 761.546 151.621 762.207 152.282C762.869 152.944 763.723 153.275 764.771 153.275H792.558C796.859 153.275 800.139 154.405 802.4 156.665C804.715 158.87 805.873 162.095 805.873 166.34C805.873 170.64 804.715 174.003 802.4 176.429C800.084 178.8 796.804 179.985 792.558 179.985H749.885Z" fill="white"/>
</svg>
